<svg width="170" height="40" xmlns="http://www.w3.org/2000/svg">
    <g fill-rule="nonzero" fill="none">
        <path d="M169.078 15.544c.743.76.845 1.942.244 2.82a2.225 2.225 0 0 1-2.714.79 2.232 2.232 0 0 1 .903-4.282 2.154 2.154 0 0 1 1.567.656m.215 1.58a1.76 1.76 0 0 0-.512-1.282 1.72 1.72 0 0 0-1.254-.513 1.699 1.699 0 0 0-1.265.513 1.75 1.75 0 0 0-.512 1.282c-.01.48.175.944.512 1.287.33.34.787.527 1.26.513a1.73 1.73 0 0 0 1.264-.513c.34-.34.525-.806.512-1.287m-2.662 1.307v-2.564h.916a1.35 1.35 0 0 1 .676.144c.205.143.325.38.318.63a.754.754 0 0 1-.512.775c.087.133.297.477.624 1.026h-.706l-.563-.954h-.2v.954l-.553-.01zm.573-2.05v.61h.308c.302 0 .455-.103.455-.313 0-.21-.153-.298-.455-.298h-.308z" fill="#FFF"/>
        <path d="M160.317 22.4zM166.108 21.97zM166.027 21.78z" fill="#E10600"/>
        <path d="m166.016 22.267-9.176 10.692 9.176-10.692zM166.108 22.051a.369.369 0 0 0-.369-.426h-2.682a5.355 5.355 0 0 0-4.06 1.862l-4.246 4.934v5.64a3.398 3.398 0 0 0 2.09-1.112l9.175-10.693a.344.344 0 0 0 .092-.205zm-.286.031-9.186 10.739a3.071 3.071 0 0 1-1.629.964v-5.252l4.184-4.856a5.117 5.117 0 0 1 3.866-1.774h2.683a.113.113 0 0 1 .107.071.108.108 0 0 1-.025.129v-.02z" fill="#FFF"/>
        <path d="M165.847 21.974a.113.113 0 0 0-.107-.071h-2.683a5.117 5.117 0 0 0-3.866 1.774l-4.184 4.856-.256.293v4.99l.256-.052a3.071 3.071 0 0 0 1.629-.943l9.186-10.718a.108.108 0 0 0 .025-.129z" fill="#E10600"/>
        <path fill="#FFF" d="M59.09 38.815 51.046 14.81h5.12l5.853 18.462 5.822-18.462h5.167l-8.065 24.005zM84.099 14.81a8.028 8.028 0 0 1 5.822 2.334 7.698 7.698 0 0 1 2.36 5.728 7.698 7.698 0 0 1-2.36 5.723 8.028 8.028 0 0 1-5.822 2.333h-4.22v7.887h-4.726V14.81H84.1zm0 11.693a3.47 3.47 0 0 0 2.524-1.065 3.48 3.48 0 0 0 .968-2.566 3.465 3.465 0 0 0-.961-2.575 3.454 3.454 0 0 0-2.531-1.061h-4.22v7.267h4.22zM112.139 31.851a6.46 6.46 0 0 1-2.156 5.005 7.674 7.674 0 0 1-5.31 1.96H94.498V14.81h9.448a7.423 7.423 0 0 1 5.171 1.923 6.24 6.24 0 0 1 2.12 4.836 5.85 5.85 0 0 1-2.258 4.8 5.95 5.95 0 0 1 3.16 5.482zm-12.91-12.615v5.282h4.717a2.558 2.558 0 0 0 2.56-2.641 2.525 2.525 0 0 0-2.56-2.641H99.23zm5.434 15.154a2.83 2.83 0 0 0 2.586-2.82 2.83 2.83 0 0 0-2.586-2.821H99.22v5.64h5.443zM147.045 23.077c1.234 1.267 1.848 2.98 1.848 5.21v10.528h-4.413v-9.98c0-2.297-1.337-3.532-3.39-3.532-2.294 0-3.769 1.405-3.769 4.25v9.262h-4.414V21.672h4.414v1.918c1.065-1.61 2.775-2.4 5.12-2.4a6.048 6.048 0 0 1 4.604 1.887zM154.761 29.23v9.585h-4.419V14.81h4.42v14.42M127.04 21.672v2.02c-1.332-1.682-3.18-2.502-5.577-2.502a7.804 7.804 0 0 0-5.889 2.64 9.095 9.095 0 0 0-2.411 6.426 9.182 9.182 0 0 0 2.432 6.447 7.768 7.768 0 0 0 5.888 2.605c2.397 0 4.245-.82 5.577-2.503v2.051h4.419V21.672h-4.44zm-4.794 13.518a4.962 4.962 0 0 1-4.584-3.068 4.975 4.975 0 0 1 1.076-5.415 4.956 4.956 0 0 1 5.407-1.077 4.97 4.97 0 0 1 3.063 4.59 4.965 4.965 0 0 1-4.962 4.97zM46.56 14.903a1.408 1.408 0 0 0-1.305-.857h-5.187a11.028 11.028 0 0 0-8.321 3.78l1.075-1.252a6.996 6.996 0 0 0 1.695-4.559V1.425A1.435 1.435 0 0 0 33.1 0c-.416.002-.808.19-1.07.513l-8.516 9.866-.169.195-.174-.195L14.66.513A1.387 1.387 0 0 0 13.59 0a1.43 1.43 0 0 0-1.429 1.426v10.59a6.996 6.996 0 0 0 1.695 4.558l1.075 1.252a11.043 11.043 0 0 0-8.315-3.78H1.434a1.432 1.432 0 0 0-1.055 2.4l17.676 20.59a7.227 7.227 0 0 0 4.475 2.395l.81.118.813-.118a7.247 7.247 0 0 0 4.476-2.395L46.325 16.41c.37-.412.461-1.002.236-1.507zM33.1.718h.03a.716.716 0 0 0-.179 0c.05-.005.1-.005.149 0zm-19.545 0h.036a.731.731 0 0 1-.036.005V.718z"/>
        <path d="M45.255 14.764h-5.187c-3.004 0-5.859 1.31-7.82 3.59l-8.182 9.508v10.861a6.541 6.541 0 0 0 4.025-2.149L45.792 15.96a.714.714 0 0 0-.537-1.195zM1.434 14.764h5.182a10.311 10.311 0 0 1 7.824 3.59l8.193 9.508v10.861a6.541 6.541 0 0 1-4.025-2.149L.906 15.96a.714.714 0 0 1 .528-1.195zM33.795 1.426v10.59a6.282 6.282 0 0 1-1.536 4.102l-8.193 9.549v-14.82L32.571.963a.706.706 0 0 1 1.224.462zM12.878 1.426v10.59a6.257 6.257 0 0 0 1.536 4.102l8.213 9.549v-14.82L14.117.963a.706.706 0 0 0-1.239.462zM165.74 21.646h-2.683c-1.56.001-3.041.68-4.06 1.862l-4.246 4.933v5.641a3.398 3.398 0 0 0 2.09-1.113l9.175-10.692a.375.375 0 0 0-.276-.63z" fill="#E10600"/>
        <path d="m159.503 30.497-1.24 1.4a2.274 2.274 0 0 0-.04 2.975c1.29 1.538 3.21 3.943 3.21 3.943h4.89l-6.82-8.318zM166.247 21.795a.553.553 0 0 0-.512-.328h-2.683c-1.611 0-3.142.701-4.194 1.923l-4.291 4.984v.554l.358-.42 4.204-4.882a5.163 5.163 0 0 1 3.923-1.8h2.683c.078 0 .148.046.179.118a.195.195 0 0 1-.041.21l-9.186 10.692a3.204 3.204 0 0 1-1.767 1.026l-.312.056h-.046v.37h.205a3.583 3.583 0 0 0 2.196-1.175l9.176-10.687a.55.55 0 0 0 .108-.641z" fill="#FFF"/>
    </g>
</svg>
