<svg width="80" height="80" xmlns="http://www.w3.org/2000/svg">
    <defs>
        <linearGradient x1="25.08%" y1="42.776%" x2="139.153%" y2="156.806%" id="a">
            <stop stop-color="#FFB92D" offset="0%"/>
            <stop stop-color="#F59500" offset="100%"/>
        </linearGradient>
        <linearGradient x1="40.224%" y1="57.913%" x2="74.609%" y2="92.284%" id="b">
            <stop stop-color="#FFB92D" offset="0%"/>
            <stop stop-color="#F59500" offset="100%"/>
        </linearGradient>
        <linearGradient x1="0%" y1="50.001%" x2="99.998%" y2="50.001%" id="c">
            <stop stop-color="#FFF465" offset="0%"/>
            <stop stop-color="#FFE600" offset="100%"/>
        </linearGradient>
        <linearGradient x1="60.548%" y1="73.01%" x2="2.379%" y2="-3.811%" id="d">
            <stop stop-color="#BE3F45" stop-opacity="0" offset="0%"/>
            <stop stop-color="#BE3F45" offset="100%"/>
        </linearGradient>
        <linearGradient x1="60.814%" y1="65.924%" x2="5.706%" y2="24.044%" id="e">
            <stop stop-color="#BE3F45" stop-opacity="0" offset="0%"/>
            <stop stop-color="#BE3F45" offset="100%"/>
        </linearGradient>
    </defs>
    <g fill-rule="nonzero" fill="none">
        <path d="M68.327 79.985H11.673c-8.666 0-14.303-9.12-10.427-16.872L29.573 6.46c4.296-8.593 16.558-8.593 20.854 0l28.327 56.653c3.876 7.752-1.761 16.872-10.427 16.872z" fill="url(#a)"/>
        <path d="M68.327 79.985H11.673c-8.666 0-14.303-9.12-10.427-16.872L29.573 6.46c4.296-8.593 16.558-8.593 20.854 0l28.327 56.653c3.876 7.752-1.761 16.872-10.427 16.872z" fill="url(#b)"/>
        <path d="M75.948 64.516 47.62 7.862c-1.475-2.949-4.324-4.71-7.621-4.71-3.297 0-6.147 1.761-7.621 4.71L4.052 64.517a8.467 8.467 0 0 0 .373 8.29 8.467 8.467 0 0 0 7.248 4.042h56.654a8.467 8.467 0 0 0 7.248-4.042 8.467 8.467 0 0 0 .373-8.29zm-3.042 6.641a5.35 5.35 0 0 1-4.58 2.553H11.674a5.35 5.35 0 0 1-4.58-2.553 5.349 5.349 0 0 1-.235-5.238L35.185 9.266C36.13 7.374 37.885 6.29 40 6.29c2.114 0 3.87 1.084 4.815 2.976L73.14 65.919c.841 1.681.753 3.64-.235 5.238z" fill="url(#c)"/>
        <path d="M68.326 79.984h-4.461L38.078 54.198c-.762-.374-1.145-1.018-1.145-1.94 0-3.478-.143-5.96-.428-13.834-.286-7.873-.428-9.49-.428-12.97 0-1.11.378-1.967 1.134-2.57.754-.606 1.733-.907 2.934-.907 1.202 0 2.085.313 2.647.942.108.12 23.615 23.62 31.73 31.73l4.232 8.465c3.876 7.75-1.761 16.87-10.428 16.87z" fill="url(#d)"/>
        <path d="M62.026 79.984H50.36L36.983 66.61c-.889-.785-1.334-1.7-1.334-2.746 0-1.09.445-2.017 1.334-2.78.89-.761 1.97-1.143 3.241-1.143 1.119 0 2.086.382 2.902 1.144l18.9 18.9z" fill="url(#e)"/>
        <path d="M35.65 63.863c0-1.09.444-2.016 1.333-2.778.89-.763 1.97-1.145 3.24-1.145 1.12 0 2.087.382 2.902 1.145.816.762 1.225 1.688 1.225 2.778 0 1.046-.408 1.961-1.225 2.746-.815.784-1.782 1.176-2.901 1.176-1.27 0-2.352-.392-3.241-1.176-.89-.785-1.334-1.7-1.334-2.746zm.427-38.409c0-1.11.378-1.967 1.133-2.571.756-.604 1.734-.907 2.936-.907 1.201 0 2.084.315 2.647.943.562.629.844 1.473.844 2.535 0 3.48-.06 5.096-.178 12.97-.12 7.875-.178 10.356-.178 13.834 0 .726-.34 1.294-1.019 1.704-.68.41-1.385.616-2.116.616-2.142 0-3.213-.773-3.213-2.32 0-3.478-.143-5.96-.428-13.834-.285-7.874-.428-9.49-.428-12.97z" fill="#FFF"/>
    </g>
</svg>
