<svg width="176" height="40" xmlns="http://www.w3.org/2000/svg" xmlns:xlink="http://www.w3.org/1999/xlink">
    <defs>
        <path id="a" d="M.507.369H19.4v18.646H.507z"/>
    </defs>
    <g fill="none" fill-rule="evenodd">
        <path d="M45.94 14.467h-5.347c-3.1 0-6.046 1.35-8.07 3.696l-8.448 9.794v11.187c2.726-.383 4.153-2.211 4.153-2.211L46.484 15.7a.737.737 0 0 0-.545-1.233M.739 14.467h5.346c3.1 0 6.045 1.35 8.07 3.696l8.447 9.794v11.187c-2.725-.383-4.152-2.211-4.152-2.211L.194 15.7a.737.737 0 0 1 .545-1.233M34.133.728v10.907a6.454 6.454 0 0 1-1.567 4.217l-8.49 9.844V10.433L32.856.253c.44-.51 1.276-.198 1.276.475M12.544.728v10.907c0 1.549.556 3.044 1.567 4.217l8.491 9.844V10.433L13.821.253c-.44-.51-1.277-.198-1.277.475" fill="#E10600"/>
        <path d="M172.48 16.07v.63h.314c.314 0 .472-.109.472-.325 0-.202-.158-.305-.472-.305h-.314zm-.591 2.135v-2.657h.944c.302 0 .536.05.7.148a.759.759 0 0 1 .324.65c0 .4-.184.665-.551.797.091.138.308.492.65 1.062h-.69l-.58-.983h-.206v.983h-.591zm2.745-1.348c0-.512-.182-.952-.546-1.319a1.763 1.763 0 0 0-1.294-.55c-.512 0-.947.182-1.304.545a1.821 1.821 0 0 0-.536 1.324c0 .518.176.96.532 1.324a1.74 1.74 0 0 0 1.298.547c.505 0 .94-.182 1.304-.547.364-.364.546-.806.546-1.324zm-.221-1.628c.45.45.674.992.674 1.628 0 .637-.224 1.18-.674 1.63a2.22 2.22 0 0 1-1.63.673c-.628 0-1.169-.224-1.618-.674a2.218 2.218 0 0 1-.674-1.629c0-.636.222-1.179.67-1.628.446-.45.99-.674 1.633-.674.63 0 1.17.224 1.619.674z" fill="#1EB14F"/>
        <path d="M170.97 21.517h-2.772c-1.607 0-3.135.7-4.184 1.917l-4.38 5.078v5.801c1.412-.199 2.152-1.146 2.152-1.146l9.467-11.01a.382.382 0 0 0-.282-.64" fill="#E10600"/>
        <path d="m164.344 30.632-1.283 1.44a2.345 2.345 0 0 0-.049 3.063 327.09 327.09 0 0 1 3.311 4.062h5.045l-7.024-8.565zM60.955 39.197l-8.299-24.72h5.297l6.04 18.999 6.003-19h5.333l-8.335 24.72zM86.754 26.519c2.084 0 3.602-1.625 3.602-3.744 0-2.154-1.518-3.743-3.602-3.743h-4.343v7.487h4.343zm0-12.043c2.366 0 4.38.813 6.004 2.402 1.624 1.589 2.436 3.566 2.436 5.897 0 2.33-.812 4.309-2.436 5.898-1.625 1.589-3.638 2.401-6.004 2.401h-4.343v8.123h-4.874v-24.72h9.217zM107.967 34.64c1.66 0 2.86-1.235 2.86-2.93 0-1.66-1.2-2.896-2.86-2.896h-5.615v5.827h5.615zm-5.615-15.608v5.438h4.873c1.519 0 2.649-1.165 2.649-2.719 0-1.554-1.095-2.72-2.649-2.72h-4.873zm13.313 12.996c0 2.083-.741 3.813-2.225 5.155-1.482 1.343-3.32 2.014-5.473 2.014H97.479v-24.72h9.746c2.119 0 3.885.67 5.332 1.977 1.449 1.306 2.19 2.967 2.19 4.98 0 2.047-.777 3.708-2.33 4.943 2.153 1.236 3.248 3.143 3.248 5.65zM151.685 22.987c1.271 1.307 1.907 3.072 1.907 5.368v10.841h-4.556V28.92c0-2.366-1.377-3.638-3.496-3.638-2.366 0-3.884 1.449-3.884 4.38v9.534H137.1V21.54h4.556v1.977c1.094-1.66 2.86-2.472 5.262-2.472 1.941 0 3.53.636 4.767 1.942M159.643 29.309v9.888h-4.556v-24.72h4.556z" fill="#1EB14F"/>
        <g transform="translate(116.204 20.676)">
            <mask id="b" fill="#fff">
                <use xlink:href="#a"/>
            </mask>
            <path d="M9.898 14.79a5.117 5.117 0 1 1 0-10.235 5.117 5.117 0 0 1 0 10.234zM14.845.863v2.083C13.468 1.217 11.56.369 9.088.369c-2.366 0-4.378.918-6.073 2.72-1.66 1.8-2.508 3.99-2.508 6.603 0 2.614.848 4.838 2.508 6.64 1.695 1.8 3.707 2.683 6.073 2.683 2.472 0 4.38-.847 5.757-2.578v2.084H19.4V.864h-4.555z" fill="#1EB14F" mask="url(#b)"/>
        </g>
    </g>
</svg>
