<svg width="130" height="280" xmlns="http://www.w3.org/2000/svg">
    <defs>
        <linearGradient x1="254.145%" y1="622.612%" x2="226.624%" y2="546.235%" id="a">
            <stop stop-color="#213F80" offset="0%"/>
            <stop stop-color="#23AF4D" offset="100%"/>
        </linearGradient>
        <linearGradient x1="12.758%" y1="170.068%" x2="56.999%" y2="24.402%" id="b">
            <stop stop-color="#213F80" offset="0%"/>
            <stop stop-color="#23AF4D" offset="100%"/>
        </linearGradient>
        <linearGradient x1="-41.343%" y1="147.77%" x2="76.59%" y2="-7.159%" id="c">
            <stop stop-color="#213F80" offset="0%"/>
            <stop stop-color="#23AF4D" offset="100%"/>
        </linearGradient>
    </defs>
    <g fill="none" fill-rule="evenodd">
        <path d="M78.723 1.963 0 87.984v.662L79.053 2.262C80.14 1.076 81.586.447 83.096.447c.678 0 1.37.127 2.047.388 2.182.841 3.537 2.81 3.537 5.139v106.434c0 24.814-9.245 48.581-26.031 66.924L0 247.79v.66l62.979-68.818c16.862-18.425 26.148-42.299 26.148-67.224V5.974c0-2.517-1.465-4.645-3.823-5.554A6.142 6.142 0 0 0 83.092 0c-1.631 0-3.196.68-4.37 1.963" fill="url(#a)" transform="matrix(-1 0 0 1 130 0)"/>
        <path d="M49.046 67.009 0 120.63v85.764l40.425-44.187a53.323 53.323 0 0 0 13.998-35.995V69.085c0-1.866-1.532-3.085-3.118-3.085-.802 0-1.62.312-2.259 1.009" fill="url(#b)" transform="matrix(-1 0 0 1 130 0)"/>
        <path d="M83.31 147a45.47 45.47 0 0 0-33.622 14.865L0 216.455v63.052h.154a28.592 28.592 0 0 0 20.982-9.337l107.404-118a3.022 3.022 0 0 0 .812-2.026v-.065c-.016-1.58-1.257-3.079-3.092-3.079H83.31z" fill="url(#c)" transform="matrix(-1 0 0 1 130 0)"/>
    </g>
</svg>
