<svg width="80" height="80" xmlns="http://www.w3.org/2000/svg">
    <g fill-rule="nonzero" fill="none">
        <path d="M57.813 1.563h-52.5a3.75 3.75 0 0 0-3.75 3.75v69.374a3.75 3.75 0 0 0 3.75 3.75h52.5a3.75 3.75 0 0 0 3.75-3.75V5.314a3.75 3.75 0 0 0-3.75-3.75z" fill="#1FB14F"/>
        <path d="M39.987 12.813H23.138a3.32 3.32 0 0 1-3.32-3.32v-7.93h23.49v7.93a3.32 3.32 0 0 1-3.321 3.32zM55.078 62.344h-6.484a3.125 3.125 0 0 0-3.125 3.125v6.484" fill="#FF7480"/>
        <path d="M19.323 7.813h-8.386a3.125 3.125 0 0 0-3.124 3.125v58.124c0 1.726 1.399 3.126 3.125 3.126h34.53l9.844-9.844V10.937c0-1.725-1.399-3.124-3.124-3.124h-8.386" fill="#F8F8F8"/>
        <path d="M55.078 62.344h-6.484a3.125 3.125 0 0 0-3.125 3.125v6.484" fill="#FFD89B"/>
        <g>
            <path d="M69.688 62.039V9.2a4.375 4.375 0 1 1 8.75 0V62.04l-4.376 13.136-4.374-13.136z" fill="#FFCB78"/>
            <path fill="#AFABB0" d="M78.438 62.039h-8.75l4.374 13.136z"/>
            <path d="M78.438 12.208V9.2a4.375 4.375 0 1 0-8.75 0v3.008h8.75z" fill="#FF7480"/>
        </g>
        <path d="M39.987 12.813H23.138a3.32 3.32 0 0 1-3.32-3.32v-7.93h23.49v7.93a3.32 3.32 0 0 1-3.321 3.32z" fill="#93E7F8"/>
        <g fill="#000">
            <path d="M74.063 3.263A5.944 5.944 0 0 0 68.124 9.2V62.04c0 .168.027.334.08.494l4.375 13.136a1.563 1.563 0 0 0 2.965 0l4.375-13.136c.053-.16.08-.326.08-.494V45.84a1.562 1.562 0 1 0-3.125 0v14.635H71.25V13.771h5.625v19.57a1.562 1.562 0 1 0 3.125 0V9.2a5.944 5.944 0 0 0-5.938-5.938zm0 66.967-2.208-6.629h4.415l-2.207 6.629zM71.25 10.646V9.2a2.816 2.816 0 0 1 2.813-2.812A2.816 2.816 0 0 1 76.874 9.2v1.446H71.25z"/>
            <path d="M78.438 38.028c-.411 0-.815.167-1.105.458-.29.29-.458.694-.458 1.105 0 .41.167.814.458 1.104.29.29.694.458 1.105.458.41 0 .814-.167 1.104-.458.29-.29.458-.693.458-1.104 0-.411-.167-.814-.458-1.105a1.574 1.574 0 0 0-1.105-.458zM57.813 0H5.312A5.318 5.318 0 0 0 0 5.313v69.374A5.318 5.318 0 0 0 5.313 80h52.5a5.318 5.318 0 0 0 5.312-5.313V5.314A5.318 5.318 0 0 0 57.812 0zM41.745 3.125v6.367a1.76 1.76 0 0 1-1.758 1.758H23.138a1.76 1.76 0 0 1-1.758-1.758V3.125h20.365zM60 74.688a2.19 2.19 0 0 1-2.188 2.187h-52.5a2.19 2.19 0 0 1-2.187-2.188V5.314a2.19 2.19 0 0 1 2.188-2.188h12.942V6.25h-7.317a4.693 4.693 0 0 0-4.688 4.688v58.124a4.693 4.693 0 0 0 4.688 4.688h7.532a1.562 1.562 0 1 0 0-3.125h-7.532c-.862 0-1.563-.7-1.563-1.563V10.938c0-.862.7-1.563 1.563-1.563h7.317v.117a4.888 4.888 0 0 0 4.883 4.883h16.849a4.888 4.888 0 0 0 4.883-4.883v-.117h7.318c.861 0 1.562.7 1.562 1.563V60.78h-5.156a4.693 4.693 0 0 0-4.688 4.688v5.156H30.97a1.562 1.562 0 1 0 0 3.125h14.499c.414 0 .812-.165 1.105-.458l9.843-9.843c.293-.293.458-.69.458-1.105V10.937a4.693 4.693 0 0 0-4.688-4.687H44.87V3.125h12.943A2.19 2.19 0 0 1 60 5.313v69.374zm-8.46-10.782-4.509 4.51v-2.947c0-.862.701-1.563 1.563-1.563h2.946z"/>
            <path d="m21.615 35.766-4.84 4.84-1.452-1.45a1.563 1.563 0 0 0-2.21 2.21l2.557 2.556c.305.305.705.457 1.105.457s.8-.152 1.105-.457l5.945-5.946a1.563 1.563 0 0 0-2.21-2.21zM29.962 44.36h7.935a1.562 1.562 0 1 0 0-3.126h-7.935a1.562 1.562 0 1 0 0 3.125zM29.962 38.11h15.87a1.562 1.562 0 1 0 0-3.126h-15.87a1.562 1.562 0 1 0 0 3.125zM23.825 50.298c-.61-.61-1.6-.61-2.21 0l-4.84 4.84-1.452-1.451a1.563 1.563 0 0 0-2.21 2.21l2.557 2.556c.305.305.705.457 1.105.457s.8-.152 1.105-.457l5.945-5.946c.61-.61.61-1.6 0-2.21zM37.897 58.89a1.562 1.562 0 1 0 0-3.125h-7.935a1.562 1.562 0 1 0 0 3.125h7.935zM29.962 52.64h15.87a1.562 1.562 0 1 0 0-3.125h-15.87a1.562 1.562 0 1 0 0 3.125zM15.67 29.209a1.563 1.563 0 0 0 2.21 0l5.945-5.946a1.563 1.563 0 0 0-2.21-2.21l-4.84 4.841-1.452-1.451a1.563 1.563 0 0 0-2.21 2.21l2.557 2.556zM29.962 29.647h7.935a1.562 1.562 0 1 0 0-3.125h-7.935a1.562 1.562 0 1 0 0 3.125zM29.962 23.397h15.87a1.562 1.562 0 1 0 0-3.125h-15.87a1.562 1.562 0 1 0 0 3.125zM24.72 70.625c-.412 0-.814.167-1.106.458-.29.29-.458.694-.458 1.105 0 .41.167.814.458 1.104.29.29.694.458 1.106.458.411 0 .814-.167 1.105-.458.29-.29.456-.694.456-1.105 0-.41-.165-.814-.456-1.104a1.574 1.574 0 0 0-1.105-.458z"/>
        </g>
    </g>
</svg>
