<svg width="84" height="80" xmlns="http://www.w3.org/2000/svg">
    <g fill-rule="nonzero" fill="none">
        <g transform="translate(19.187 1.626)">
            <path fill="#D5F5FB" d="M25.633 7.847h11.124v6.419H25.633z"/>
            <path d="M25.341 7.847h11.707a3.902 3.902 0 1 0 0-7.805H25.341a3.902 3.902 0 1 0 0 7.805z" fill="#FF7480"/>
            <circle fill="#1FB14F" cx="31.22" cy="45.486" r="31.22"/>
            <circle fill="#FFF" cx="31.22" cy="45.486" r="23.598"/>
            <circle fill="#FF838E" cx="31.22" cy="45.486" r="3.427"/>
        </g>
        <g fill="#000">
            <path d="M83.09 43.845a32.908 32.908 0 0 0-9.458-19.958 32.65 32.65 0 0 0-16.062-8.82v-4.131a5.537 5.537 0 0 0 4.194-5.365A5.535 5.535 0 0 0 56.236.043H44.528A5.535 5.535 0 0 0 39 5.57a5.538 5.538 0 0 0 4.194 5.365v4.143a32.65 32.65 0 0 0-16.013 8.808 33.003 33.003 0 0 0-2.76 3.133c-.041-.003-.082-.006-.124-.006H12.71a1.626 1.626 0 0 0 0 3.252h9.498a32.596 32.596 0 0 0-2.885 6.25H1.626a1.626 1.626 0 0 0 0 3.251h16.778a33.06 33.06 0 0 0-.807 6.25h-7.19a1.626 1.626 0 0 0 0 3.252h7.242a33.012 33.012 0 0 0 1.015 6.25H8.13a1.626 1.626 0 0 0 0 3.252h11.572a32.655 32.655 0 0 0 7.48 11.567 32.906 32.906 0 0 0 19.978 9.46c1.074.106 2.149.158 3.222.158 6.345 0 12.61-1.836 17.925-5.297a1.626 1.626 0 0 0-1.774-2.726c-11.636 7.577-27.218 5.939-37.052-3.895-11.539-11.538-11.539-30.313 0-41.852 11.538-11.538 30.313-11.538 41.851 0 9.821 9.821 11.468 25.39 3.917 37.02a1.626 1.626 0 0 0 2.727 1.771c4.035-6.213 5.851-13.718 5.114-21.132zM42.252 5.57a2.279 2.279 0 0 1 2.276-2.276h11.708a2.279 2.279 0 0 1 2.276 2.276 2.279 2.279 0 0 1-2.276 2.277H44.528a2.279 2.279 0 0 1-2.276-2.277zm4.194 8.949V11.1h7.872v3.414a33.13 33.13 0 0 0-7.872.006z"/>
            <path d="M72.483 67.561c-.43 0-.847.174-1.15.476a1.632 1.632 0 0 0-.476 1.15 1.628 1.628 0 0 0 2.776 1.15c.302-.303.476-.722.476-1.15 0-.428-.174-.847-.476-1.15a1.641 1.641 0 0 0-1.15-.476zM50.407 21.888c-13.909 0-25.225 11.315-25.225 25.224s11.316 25.224 25.225 25.224c13.908 0 25.224-11.315 25.224-25.224S64.315 21.888 50.407 21.888zm0 47.196c-12.116 0-21.973-9.857-21.973-21.972 0-12.116 9.857-21.972 21.973-21.972 12.115 0 21.972 9.856 21.972 21.972 0 12.115-9.857 21.972-21.972 21.972z"/>
            <path d="M60.692 34.527 52.64 42.58a5.022 5.022 0 0 0-2.232-.52c-.801 0-1.559.187-2.232.52l-3.605-3.604a1.626 1.626 0 0 0-2.3 2.3l3.605 3.604a5.02 5.02 0 0 0-.521 2.232 5.058 5.058 0 0 0 5.053 5.052 5.058 5.058 0 0 0 5.052-5.052c0-.801-.188-1.559-.52-2.232l7.816-7.817.237-.237a1.626 1.626 0 0 0-2.3-2.3zM50.407 48.913c-.993 0-1.801-.808-1.801-1.801 0-.993.808-1.8 1.8-1.8.994 0 1.801.807 1.801 1.8s-.807 1.8-1.8 1.8zM67.792 45.506h-1.507a1.626 1.626 0 0 0 0 3.252h1.507a1.626 1.626 0 0 0 0-3.252zM34.528 45.466H33.02a1.626 1.626 0 0 0 0 3.252h1.507a1.626 1.626 0 0 0 0-3.252zM50.427 32.859c.897 0 1.626-.728 1.626-1.626v-1.506a1.626 1.626 0 0 0-3.253 0v1.506c0 .898.729 1.626 1.627 1.626zM50.387 61.365c-.898 0-1.626.728-1.626 1.626v1.506a1.626 1.626 0 0 0 3.252 0v-1.506c0-.898-.728-1.626-1.626-1.626zM1.626 55.519c-.428 0-.847.174-1.15.476A1.638 1.638 0 0 0 0 57.145c0 .429.174.847.476 1.15.303.302.722.476 1.15.476.428 0 .847-.174 1.15-.477.302-.302.476-.722.476-1.15 0-.427-.174-.846-.477-1.149a1.638 1.638 0 0 0-1.149-.476z"/>
        </g>
    </g>
</svg>
