<svg width="32" height="32" xmlns="http://www.w3.org/2000/svg">
    <g fill="none" fill-rule="evenodd">
        <circle fill="#224B7C" cx="16" cy="16" r="16"/>
        <path d="M21.392 12.665a1.453 1.453 0 0 0 0-2.057 1.453 1.453 0 0 0-2.057 0l2.057 2.057zm-10.784 6.67a1.453 1.453 0 0 0 0 2.057 1.453 1.453 0 0 0 2.057 0l-2.057-2.057zm8.727-8.727-8.727 8.727 2.057 2.057 8.727-8.727-2.057-2.057z" fill="#FFF"/>
        <path d="M12.665 10.608a1.453 1.453 0 0 0-2.057 0 1.453 1.453 0 0 0 0 2.057l2.057-2.057zm6.67 10.784a1.453 1.453 0 0 0 2.057 0 1.453 1.453 0 0 0 0-2.057l-2.057 2.057zm-8.727-8.727 8.727 8.727 2.057-2.057-8.727-8.727-2.057 2.057z" fill="#FFF"/>
    </g>
</svg>
