<svg width="80" height="80" xmlns="http://www.w3.org/2000/svg">
    <g fill-rule="nonzero" fill="none">
        <path d="M46.233 45.945V47.9l-8.158 1.79a7.656 7.656 0 0 0-6.016 7.478v15.019h36.875V57.172a7.656 7.656 0 0 0-6.02-7.479l-8.2-1.793v-1.97" fill="#1FB14F"/>
        <path fill="#FFF" d="m54.714 47.901-4.24 11.34-4.241-11.34z"/>
        <path d="M50.497 22.958a8.982 8.982 0 0 0-8.983 8.982v2.162h4.392a9.87 9.87 0 0 0 7.564-3.53l6.009 3.53V31.94a8.982 8.982 0 0 0-8.982-8.982z" fill="#AFABB0"/>
        <path d="M51.535 32.337a9.867 9.867 0 0 1-5.629 1.765h-4.391v3.816a8.982 8.982 0 0 0 17.965 0v-3.816l-3.005-1.765-3.005-1.765-1.935 1.765z" fill="#FED2A4"/>
        <path fill="#FFBE52" d="M1.563 72.188h76.875v6.25H1.563z"/>
        <circle fill="#FFCB78" cx="14.46" cy="14.46" r="12.898"/>
        <path fill="#C7C4C8" d="M1.563 35.469h33.75v25H1.563z"/>
        <path d="M21.563 66.563h-6.25v-15.47a3.125 3.125 0 0 1 6.25 0v15.47z" fill="#5DDEF5"/>
        <path d="M26.563 72.188h-16.25v-2.344a3.281 3.281 0 0 1 3.28-3.281h9.688a3.281 3.281 0 0 1 3.282 3.28v2.344z" fill="#5DDEF5"/>
        <path fill="#FFF" d="M58.438 65.938h20v6.25h-20z"/>
        <path fill="#E8E7E9" d="M58.438 59.688h20v6.25h-20z"/>
        <path fill="#FFF" d="M58.438 53.438h20v6.25h-20z"/>
        <g fill="#000">
            <path d="M14.46 28.92c7.973 0 14.46-6.487 14.46-14.46C28.92 6.487 22.433 0 14.46 0 6.487 0 0 6.487 0 14.46c0 7.973 6.487 14.46 14.46 14.46zm0-25.795c6.25 0 11.335 5.085 11.335 11.335 0 6.25-5.085 11.335-11.335 11.335-6.25 0-11.335-5.085-11.335-11.335 0-6.25 5.085-11.335 11.335-11.335z"/>
            <path d="M15.703 17.895c.305.304.704.455 1.103.455a1.563 1.563 0 0 0 1.103-2.67l-1.876-1.869V6.875a1.563 1.563 0 0 0-3.125 0v7.585c0 .415.166.814.46 1.107l2.335 2.328zM78.438 51.875H68.82a9.228 9.228 0 0 0-5.574-3.708l-6.87-1.502a10.543 10.543 0 0 0 4.664-8.748V31.94c0-5.815-4.73-10.545-10.544-10.545-5.815 0-10.545 4.73-10.545 10.545v5.977c0 3.634 1.848 6.845 4.653 8.741l-6.865 1.507a9.33 9.33 0 0 0-.865.234V35.47c0-.863-.7-1.563-1.563-1.563H24.688a1.563 1.563 0 0 0 0 3.125h9.062v21.875H23.125v-7.812a4.693 4.693 0 0 0-4.688-4.688 4.693 4.693 0 0 0-4.687 4.688v7.812H3.125V37.031h9.063a1.563 1.563 0 0 0 0-3.125H1.562C.7 33.906 0 34.606 0 35.47v25c0 .863.7 1.562 1.563 1.562H13.75V65h-.156a4.85 4.85 0 0 0-4.844 4.844v.781H1.562c-.862 0-1.562.7-1.562 1.563v6.25C0 79.3.7 80 1.563 80h76.874C79.3 80 80 79.3 80 78.437v-25c0-.862-.7-1.562-1.563-1.562zm-9.504 18.75H60V67.5h16.875v3.125h-7.94zm7.941-6.25H60V61.25h16.875v3.125zm0-6.25H60V55h16.875v3.125zM43.077 31.94c0-4.091 3.328-7.42 7.42-7.42 3.895 0 7.1 3.018 7.397 6.839l-3.632-2.134a1.562 1.562 0 0 0-1.99.344 8.286 8.286 0 0 1-6.366 2.971h-2.829V31.94zm0 3.725h2.83a11.4 11.4 0 0 0 7.844-3.116l4.165 2.448v2.92c0 4.092-3.328 7.42-7.42 7.42-4.09 0-7.419-3.328-7.419-7.42v-2.252zm9.867 12.507-2.47 6.609-2.476-6.62a10.526 10.526 0 0 0 4.946.011zm-17.632 13.86c.863 0 1.563-.7 1.563-1.563v-8.691a6.077 6.077 0 0 1 1.534-.561l6.835-1.5L49.01 59.79a1.562 1.562 0 0 0 2.927 0l3.766-10.072 6.877 1.503a6.082 6.082 0 0 1 1.703.655h-5.846c-.862 0-1.562.7-1.562 1.562v17.188H33.622V62.03h1.69zm-4.815 0v8.593h-2.372v-.781A4.85 4.85 0 0 0 23.281 65h-.156v-2.969h7.372zM16.875 51.093c0-.862.7-1.563 1.563-1.563.861 0 1.562.701 1.562 1.563V65h-3.125V51.094zm-5 18.75a1.72 1.72 0 0 1 1.719-1.719H23.28A1.72 1.72 0 0 1 25 69.844v.781H11.875v-.781zm65 7.031H3.125V73.75h73.75v3.125z"/>
            <path d="M17.333 34.364c-.29.29-.458.694-.458 1.105 0 .41.167.814.458 1.104.29.29.694.458 1.105.458.41 0 .814-.167 1.104-.458.29-.29.458-.693.458-1.104 0-.411-.167-.814-.458-1.105a1.574 1.574 0 0 0-1.105-.458c-.41 0-.814.167-1.104.458z"/>
        </g>
    </g>
</svg>
