<svg width="26" height="24" xmlns="http://www.w3.org/2000/svg">
    <g fill="none" fill-rule="evenodd">
        <rect stroke="#888" stroke-width=".8" x=".4" y=".4" width="24.4" height="23.2" rx="4"/>
        <path d="M4.509 20.906c-.099-.044-.17-.094-.055-.192.071-.055.148-.105.225-.154.72-.467 1.395-.978 1.84-1.73.373-.626.313-.994-.154-1.456-2.603-2.603-3.745-5.717-3.174-9.396.324-2.076 1.274-3.872 2.658-5.432C6.684 1.601 7.678.838 8.765.201c.066-.038.16-.05.17-.148-.021-.055-.06-.039-.093-.039-1.85 0-3.701-.038-5.547.011C1.527.08 0 1.448.005 3.408c.011 5.728 0 11.457 0 17.19 0 1.78 1.357 3.268 3.13 3.334 1.5.06 3 .01 4.504.005.11.006.22.011.33.011h7.93c1.977 0 3.955.011 5.932 0a3.318 3.318 0 0 0 3.322-3.311V17.39c0-.077.028-.16-.022-.242-.099.006-.137.088-.192.143a12.163 12.163 0 0 1-3.701 2.543c-3.378 1.488-6.816 1.593-10.303.395a1.629 1.629 0 0 0-.945-.044c-.461.116-.917.253-1.373.39-1.34.418-2.708.604-4.108.33z" fill="#FDFEFE" fill-rule="nonzero"/>
        <path d="M8.49 11.652c.094-.121.143-.192.198-.264.72-.912 1.44-1.823 2.159-2.74.208-.264.417-.533.549-.852.154-.362-.011-.703-.385-.834a1.481 1.481 0 0 0-.516-.06c-.977-.006-1.96-.006-2.938 0a1.68 1.68 0 0 0-.406.049.578.578 0 0 0 .01 1.125c.132.033.27.05.407.044.593.006 1.192 0 1.785.006.066 0 .148-.044.198.055-.05.066-.1.132-.149.192-.851 1.076-1.697 2.158-2.548 3.235-.209.269-.319.566-.165.895.154.33.467.39.786.412.252.016.51.005.768.005.89 0 1.774.006 2.664-.005.472-.006.725-.291.676-.73-.039-.346-.275-.528-.714-.533-.775-.006-1.55 0-2.378 0z" fill="#FDFEFE" fill-rule="nonzero"/>
        <path d="M14.861 8.763c-.686-.599-1.444-.637-2.185-.198-.901.528-1.23 1.39-1.12 2.39.103.933.51 1.696 1.487 2.01.61.197 1.176.126 1.676-.28.131-.105.17-.083.263.032.181.23.494.319.769.214a.643.643 0 0 0 .456-.62c.005-1.099.01-2.197 0-3.295-.006-.44-.418-.72-.846-.632-.236.05-.368.209-.5.379zM18.667 10.8c-.022 1.374 1.115 2.411 2.543 2.269 1.313-.132 2.164-1.115 2.12-2.505-.044-1.373-1.065-2.312-2.466-2.268-1.313.039-2.24 1.093-2.197 2.505zM18.184 9.708c0-.863.005-1.72 0-2.582 0-.439-.28-.714-.698-.708-.406.005-.675.28-.68.703-.006.258 0 .51 0 .769v4.366c0 .34.208.637.483.708a.703.703 0 0 0 .89-.703c.01-.85.005-1.702.005-2.553z" fill="#FDFEFE" fill-rule="nonzero"/>
        <path d="M7.634 23.943c-1.5 0-3.004.05-4.504-.006C1.357 23.866 0 22.377 0 20.604c0-5.728.011-11.457 0-17.19C0 1.454 1.532.086 3.295.036c1.846-.05 3.696-.01 5.547-.01.033 0 .077-.017.093.038-.01.099-.11.11-.17.148-1.087.637-2.081 1.4-2.916 2.345-1.379 1.56-2.334 3.35-2.658 5.432-.571 3.674.577 6.793 3.174 9.396.462.467.522.83.154 1.456-.445.752-1.12 1.263-1.84 1.73-.077.044-.154.099-.23.148-.116.099-.044.148.054.192a.7.7 0 0 0 .083.138c.631.56 1.23 1.158 1.85 1.73.292.269.583.549.863.829.115.104.307.137.335.335z" fill="#888" fill-rule="nonzero"/>
        <path d="M7.634 23.943c-.028-.192-.22-.225-.335-.34-.28-.286-.571-.56-.862-.83-.621-.571-1.22-1.17-1.851-1.73a.7.7 0 0 1-.083-.137c1.4.274 2.768.088 4.114-.324.456-.138.912-.275 1.373-.39.313-.083.642-.066.945.044 3.481 1.197 6.92 1.087 10.303-.396a12.146 12.146 0 0 0 3.701-2.537c.055-.055.093-.137.192-.143.05.077.022.16.022.242v3.213a3.323 3.323 0 0 1-3.295 3.344h-.027c-1.977.011-3.955 0-5.932 0H7.963a3.31 3.31 0 0 0-.33-.016zM8.49 11.652c.83 0 1.61-.006 2.384 0 .434.005.67.187.714.532.05.434-.203.725-.675.73-.89.012-1.774.006-2.664.006-.258 0-.51.011-.769-.005-.318-.017-.631-.082-.785-.412-.154-.33-.044-.626.164-.895.846-1.077 1.698-2.159 2.549-3.235.05-.066.099-.132.148-.192-.055-.094-.132-.05-.198-.055-.593-.006-1.191 0-1.785-.006-.137 0-.274-.016-.406-.044a.577.577 0 0 1-.434-.692.578.578 0 0 1 .423-.428c.132-.033.27-.05.406-.05.978-.005 1.961-.005 2.939 0a1.82 1.82 0 0 1 .516.061c.373.126.533.472.384.835-.131.313-.34.582-.549.851-.72.917-1.439 1.829-2.158 2.735-.06.072-.116.143-.203.264z" fill="#888" fill-rule="nonzero"/>
        <path d="M14.861 8.763c.132-.17.27-.33.495-.373.433-.088.84.192.845.631.017 1.099.011 2.197 0 3.295a.65.65 0 0 1-.455.62.668.668 0 0 1-.77-.213c-.093-.116-.131-.138-.263-.033-.5.406-1.065.478-1.675.28-.978-.319-1.379-1.082-1.488-2.01-.116-1.005.22-1.862 1.12-2.39.747-.444 1.505-.406 2.191.193zm-1.944 2.005c.011.241.088.472.23.664a.907.907 0 0 0 1.445 0c.308-.417.308-1.104 0-1.521a.825.825 0 0 0-.653-.346c-.604-.039-1.027.428-1.022 1.203zm5.75.033c-.044-1.412.884-2.466 2.203-2.505 1.4-.044 2.422.895 2.465 2.268.044 1.39-.807 2.373-2.12 2.505-1.433.142-2.57-.895-2.548-2.268zm1.379-.132c-.011.274.071.543.236.769a.896.896 0 0 0 1.263.164c.06-.044.11-.099.16-.153.318-.418.318-1.12.005-1.538a.84.84 0 0 0-.654-.346c-.593-.033-1.01.417-1.01 1.104zm-1.862-.961c0 .85.005 1.702 0 2.553a.714.714 0 0 1-.895.703c-.275-.071-.484-.362-.484-.708V7.89c0-.258-.005-.511 0-.77.006-.422.275-.697.681-.697.418-.005.698.27.698.709.005.857 0 1.719 0 2.576z" fill="#888" fill-rule="nonzero"/>
        <path d="M12.917 10.768c-.005-.775.418-1.242 1.016-1.209.258.011.5.138.654.352.307.412.307 1.104 0 1.521a.907.907 0 0 1-1.445 0 1.236 1.236 0 0 1-.225-.664zm7.129-.1c0-.68.417-1.136 1.01-1.103a.84.84 0 0 1 .654.346c.313.417.313 1.126-.006 1.538a.906.906 0 0 1-1.268.148.706.706 0 0 1-.154-.16 1.25 1.25 0 0 1-.236-.768z" fill="#F0F8FF" fill-rule="nonzero"/>
    </g>
</svg>
