<svg width="48" height="48" xmlns="http://www.w3.org/2000/svg">
    <g fill="#1FB14F" fill-rule="evenodd">
        <path d="M43.636 24c0 10.846-8.79 19.636-19.636 19.636V48c13.255 0 24-10.745 24-24h-4.364zM24 43.636c-10.846 0-19.636-8.79-19.636-19.636H0c0 13.255 10.745 24 24 24v-4.364zM4.364 24c0-10.846 8.79-19.636 19.636-19.636V0C10.745 0 0 10.745 0 24h4.364zM24 4.364c10.846 0 19.636 8.79 19.636 19.636H48C48 10.745 37.255 0 24 0v4.364zM25.543 16.815a2.18 2.18 0 0 0 0-3.085 2.18 2.18 0 0 0-3.086 0l3.086 3.085zM15.273 24l-1.543-1.543a2.18 2.18 0 0 0 0 3.086L15.273 24zm7.184 10.27a2.18 2.18 0 0 0 3.086 0 2.18 2.18 0 0 0 0-3.085l-3.086 3.085zm0-20.54-8.727 8.727 3.085 3.086 8.728-8.728-3.086-3.085zM13.73 25.543l8.727 8.727 3.086-3.085-8.728-8.728-3.085 3.086z"/>
        <path d="M32.727 26.182a2.181 2.181 0 1 0 0-4.364v4.364zm-17.454-4.364a2.183 2.183 0 0 0 0 4.364v-4.364zm0 4.364h17.454v-4.364H15.273v4.364z"/>
    </g>
</svg>
