<svg width="21" height="20" xmlns="http://www.w3.org/2000/svg">
    <g fill="#1FB14F" fill-rule="evenodd">
        <path d="m10.707 12.707-.094.083a.999.999 0 0 1-1.32-.083l-3-3-.083-.094a.999.999 0 0 1 1.497-1.32L10 10.586l9.293-9.293.094-.083a.999.999 0 0 1 1.32 1.497l-10 10zM17.707 17.707l1.414 1.414A2.996 2.996 0 0 1 17 20H3v-2h14c.266 0 .52-.105.707-.293zM2 3v14l.009.132c.028.217.127.42.284.575l.099.087A.997.997 0 0 0 3 18v2a2.997 2.997 0 0 1-3-3V3h2zm17 6a1 1 0 0 1 1 1v7l-.007.198a2.996 2.996 0 0 1-.872 1.923l-1.414-1.414A.996.996 0 0 0 18 17v-7l.007-.117A1 1 0 0 1 19 9zM3 0v2a.996.996 0 0 0-.707.293l-.087.099A.999.999 0 0 0 2 3H0C0 2.205.316 1.441.879.879l.145-.136A2.997 2.997 0 0 1 3 0zm0 2V0h11a1 1 0 1 1 0 2H3z"/>
    </g>
</svg>
