<svg xmlns="http://www.w3.org/2000/svg" width="24" height="24" viewBox="0 0 24 24">
    <g fill="none" fill-rule="evenodd">
        <g fill="#1FB14F">
            <g>
                <g>
                    <path d="M21.818 12c0 5.423-4.395 9.818-9.818 9.818V24c6.627 0 12-5.373 12-12h-2.182zM12 21.818c-5.423 0-9.818-4.395-9.818-9.818H0c0 6.627 5.373 12 12 12v-2.182zM2.182 12c0-5.423 4.395-9.818 9.818-9.818V0C5.373 0 0 5.373 0 12h2.182zM12 2.182c5.423 0 9.818 4.395 9.818 9.818H24c0-6.627-5.373-12-12-12v2.182zM16.044 9.499c.427-.427.427-1.116 0-1.543-.427-.427-1.116-.427-1.543 0l1.543 1.543zM7.956 14.5c-.427.427-.427 1.116 0 1.543.427.427 1.116.427 1.543 0l-1.543-1.543zm6.545-6.545l-6.545 6.545 1.543 1.543 6.545-6.545-1.543-1.543z" transform="translate(-319.000000, -59.000000) translate(16.000000, 35.000000) translate(303.000000, 24.000000)"/>
                    <path d="M9.499 7.956c-.427-.427-1.116-.427-1.543 0-.427.427-.427 1.116 0 1.543l1.543-1.543zm5.002 8.088c.427.427 1.116.427 1.543 0 .427-.427.427-1.116 0-1.543l-1.543 1.543zM7.956 9.499l6.545 6.545 1.543-1.543-6.545-6.545-1.543 1.543z" transform="translate(-319.000000, -59.000000) translate(16.000000, 35.000000) translate(303.000000, 24.000000)"/>
                </g>
            </g>
        </g>
    </g>
</svg>
