<svg width="16" height="16" xmlns="http://www.w3.org/2000/svg">
    <path d="m8 0 .25.004A8 8 0 0 1 16 8l-.004.25A8 8 0 0 1 8 16l-.25-.004A8 8 0 0 1 0 8l.004-.25A8 8 0 0 1 8 0zm0 1.455-.235.004A6.545 6.545 0 0 0 1.455 8l.004.235A6.545 6.545 0 0 0 8 14.545l.235-.004A6.545 6.545 0 0 0 14.545 8l-.004-.235A6.545 6.545 0 0 0 8 1.455zm0 2.732c.402 0 .727.325.727.727v2.358h2.359l.098.007a.726.726 0 0 1-.098 1.448H8.727v2.359l-.006.098a.726.726 0 0 1-1.448-.098l-.001-2.359H4.914l-.098-.006a.726.726 0 0 1 .098-1.448l2.358-.001V4.914l.007-.098A.726.726 0 0 1 8 4.187z" fill="#1FB14F" fill-rule="evenodd"/>
</svg>
