<svg width="56" height="55" xmlns="http://www.w3.org/2000/svg">
    <g fill="#888" fill-rule="nonzero">
        <path d="M40.5 54.545c-8.145 0-14.773-6.627-14.773-14.772C25.727 31.627 32.355 25 40.5 25c8.146 0 14.773 6.627 14.773 14.773 0 8.145-6.627 14.772-14.773 14.772zm0-26.136c-6.266 0-11.363 5.098-11.363 11.364 0 6.266 5.097 11.363 11.363 11.363 6.266 0 11.364-5.097 11.364-11.363 0-6.266-5.098-11.364-11.364-11.364z"/>
        <path d="M40.5 47.727c-.941 0-1.705-.763-1.705-1.704v-12.5a1.705 1.705 0 0 1 3.41 0v12.5c0 .94-.764 1.704-1.705 1.704z"/>
        <path d="M46.75 41.477h-12.5a1.705 1.705 0 0 1 0-3.409h12.5a1.705 1.705 0 0 1 0 3.41zM21.727 45.455H6.977a6.255 6.255 0 0 1-6.25-6.25V6.25A6.255 6.255 0 0 1 6.977 0h23.864a6.255 6.255 0 0 1 6.25 6.25V21a1.705 1.705 0 0 1-3.41 0V6.25a2.845 2.845 0 0 0-2.84-2.84H6.977a2.845 2.845 0 0 0-2.84 2.84v32.955a2.845 2.845 0 0 0 2.84 2.84h14.75a1.705 1.705 0 0 1 0 3.41z"/>
        <path d="M12.091 20.455a4.55 4.55 0 0 1-4.546-4.546 4.55 4.55 0 0 1 4.546-4.545 4.55 4.55 0 0 1 4.545 4.545 4.55 4.55 0 0 1-4.545 4.546zm0-5.682c-.625 0-1.136.509-1.136 1.136 0 .628.511 1.136 1.136 1.136.625 0 1.136-.508 1.136-1.136 0-.627-.51-1.136-1.136-1.136zM2.432 35.227a1.705 1.705 0 0 1-1.205-2.911l4.637-4.636c1.5-1.5 4.136-1.503 5.636 0l2.864 2.863 10.818-10.818c1.5-1.5 4.136-1.502 5.636 0l1.227 1.227a1.705 1.705 0 0 1-2.41 2.412l-1.228-1.228c-.289-.288-.527-.286-.816 0L15.568 34.16a1.705 1.705 0 0 1-2.411 0l-4.068-4.068c-.289-.289-.528-.289-.816 0l-4.636 4.636c-.333.334-.769.5-1.205.5z"/>
    </g>
</svg>
