<svg width="76" height="80" xmlns="http://www.w3.org/2000/svg">
    <g fill-rule="nonzero" fill="none">
        <path d="M61.628 33.368a.647.647 0 0 1-.592 0c-7.727-3.99-12.42-10.228-13.483-17.789a32.222 32.222 0 0 0-14.177-3.265c-17.869 0-32.354 14.485-32.354 32.354s14.485 32.354 32.354 32.354S65.73 62.537 65.73 44.668c0-4.334-.854-8.468-2.4-12.245-.55.327-1.117.643-1.702.945z" fill="#D8ECFE"/>
        <path d="M6.828 53.6a1.16 1.16 0 0 1 1.642 0l.471.472a32.347 32.347 0 0 1-1.39-9.404c0-16.767 12.754-30.554 29.09-32.191a32.756 32.756 0 0 0-3.265-.163c-17.869 0-32.354 14.485-32.354 32.354 0 4.36.864 8.516 2.427 12.312l3.38-3.38z" fill="#C4E2FF"/>
        <path d="M47.998 56.298a9.42 9.42 0 0 1-7.055 2.77l-2.298-.084a9.732 9.732 0 0 0-5.337 1.348l9.232 9.232 14.52-14.519-3.905-3.904-5.157 5.157z" fill="#FFE5C2"/>
        <path d="m40.937 59.225-2.298-.085a9.64 9.64 0 0 0-5.215 1.308l9.006 9.005 5.011-5.011-5.255-5.255c-.413.038-.83.053-1.249.038z" fill="#FED2A4"/>
        <path d="m46.59 79.66-6.363-6.363a1.16 1.16 0 0 1 0-1.641L58.283 53.6a1.16 1.16 0 0 1 1.641 0l6.363 6.362a1.16 1.16 0 0 1 0 1.642L48.23 79.66a1.16 1.16 0 0 1-1.641 0z" fill="#FE646F"/>
        <path d="M46.987 73.297a1.16 1.16 0 0 1 0-1.64L62.483 56.16l-2.559-2.56a1.16 1.16 0 0 0-1.641 0L40.227 71.657a1.16 1.16 0 0 0 0 1.641l6.363 6.363a1.16 1.16 0 0 0 1.641 0l2.56-2.559-3.804-3.803z" fill="#FD4755"/>
        <path d="M59.109 40.66a3.478 3.478 0 0 0-4.18-.695c-.136.073-.286-.072-.213-.207a3.478 3.478 0 0 0-4.708-4.708c-.133.071-.28-.076-.209-.21a3.478 3.478 0 0 0-4.709-4.707c-.134.073-.279-.077-.207-.212a3.478 3.478 0 0 0-.7-4.186c-1.38-1.285-3.551-1.186-4.884.147l-.305.305-.262.041-4.22 4.22.028.193 2.554 2.555c.664.663 1.06 1.564 1.035 2.502a3.296 3.296 0 0 1-1.08 2.361 3.242 3.242 0 0 1-2.197.843 3.514 3.514 0 0 1-2.467-1.024l-.22.22.932.933c.621.622 1.008 1.453 1.027 2.331a3.312 3.312 0 0 1-1.39 2.777c-.426.309-.926.51-1.447.583a3.313 3.313 0 0 1-2.831-.94l-1.605-1.604-.221.22a3.319 3.319 0 0 1 .909 3.01 3.327 3.327 0 0 1-3.557 2.646c-.796-.07-1.534-.446-2.1-1.01L20.01 45.17l-.221.221a3.302 3.302 0 0 1 .946 2.629 3.316 3.316 0 0 1-3.308 3.026c-.88 0-1.708-.342-2.333-.96l-5.18 5.18 14.122 14.12 7.431-7.43a9.64 9.64 0 0 1 7.172-2.817l2.298.085a9.638 9.638 0 0 0 7.171-2.817l10.853-10.853c1.337-1.336 1.438-3.515.148-4.895z" fill="#D88A55"/>
        <g fill="#C57A44">
            <path d="M37.269 33.149c.591.591.922 1.343.998 2.115l7.024-7.024a3.477 3.477 0 0 0-5.933-2.417l-4.707 4.708 2.618 2.618zM20.934 52.597l4.611-4.61a3.477 3.477 0 0 1-3.722-.782L19.9 45.282a3.476 3.476 0 0 1-4.916 4.916l-4.959 4.958 14.121 14.122 4.458-4.458-7.67-7.67a3.22 3.22 0 0 1 0-4.553z"/>
        </g>
        <path d="M37.269 33.149 29.21 25.09a3.477 3.477 0 1 0-4.917 4.917 3.477 3.477 0 1 0-4.916 4.917 3.477 3.477 0 0 0-4.918 4.917l1.505 1.505a3.477 3.477 0 1 0-4.917 4.916l3.922 3.922a3.477 3.477 0 1 0 4.917-4.917l1.937 1.937a3.477 3.477 0 1 0 4.917-4.917l1.605 1.605a3.477 3.477 0 1 0 4.917-4.917l-.988-.988c1.328 1.328 3.495 1.454 4.88.186a3.477 3.477 0 0 0 .114-5.025z" fill="#FFE5C2"/>
        <path d="M35.632 23.593h-6.208c-1.05 0-1.902.851-1.902 1.902v.79a4.262 4.262 0 0 0 4.261 4.261l2.868-.015 4.343-4.344a3.477 3.477 0 0 0-3.362-2.595z" fill="#FFBD86"/>
        <g fill="#FED2A4">
            <path d="m35.282 36.572-7.98-7.98a3.474 3.474 0 0 1-.343-4.512 3.477 3.477 0 0 0-2.665 5.927l7.98 7.981c1.329 1.329 3.496 1.455 4.881.186.182-.167.34-.35.478-.542a3.654 3.654 0 0 1-2.35-1.06zM31.716 42.2l-8.968-8.967a3.475 3.475 0 0 1-.535-4.221 3.477 3.477 0 0 0-2.836 5.913l8.969 8.968a3.477 3.477 0 0 0 4.878.038c.23-.222.418-.47.573-.733a3.462 3.462 0 0 1-2.08-.997zM25.117 45.581l-7.364-7.363a3.476 3.476 0 0 1-.49-4.294 3.477 3.477 0 0 0-2.802 5.918l7.362 7.363a3.477 3.477 0 0 0 4.878.038c.209-.202.383-.425.53-.661a3.462 3.462 0 0 1-2.114-1zM18.285 48.569l-3.92-3.922a3.476 3.476 0 0 1-.49-4.298 3.477 3.477 0 0 0-2.827 5.914l3.921 3.922a3.477 3.477 0 0 0 4.879.038c.207-.2.38-.422.526-.656a3.462 3.462 0 0 1-2.089-.998z"/>
        </g>
        <path d="m26.525 73.297-6.363 6.363a1.16 1.16 0 0 1-1.641 0L.466 61.605a1.16 1.16 0 0 1 0-1.642l6.362-6.362a1.16 1.16 0 0 1 1.642 0l18.055 18.055a1.16 1.16 0 0 1 0 1.641z" fill="#97D729"/>
        <path d="M7.086 61.605a1.16 1.16 0 0 1 0-1.642l3.873-3.873-2.49-2.49a1.16 1.16 0 0 0-1.64 0L.465 59.964a1.16 1.16 0 0 0 0 1.642L18.52 79.66a1.16 1.16 0 0 0 1.641 0l2.49-2.49L7.086 61.605z" fill="#8BC727"/>
        <g>
            <path d="M61.332 0c-4.2 0-8.164 4.194-11.663 3.053a.804.804 0 0 0-.997.5 25.565 25.565 0 0 0-1.507 8.668c0 9.889 5.6 17.052 13.8 21.286.23.119.505.119.735 0 8.2-4.234 13.8-11.397 13.8-21.286 0-3.042-.533-5.96-1.507-8.668a.804.804 0 0 0-.997-.5C69.497 4.194 65.533 0 61.332 0z" fill="#FED402"/>
            <path d="M59.232 24.42c-4.243-.96-7.422-4.758-7.422-9.287 0-2.35.857-4.502 2.273-6.165a25.549 25.549 0 0 1 1.254-7.06c-1.99.926-3.889 1.726-5.668 1.145a.804.804 0 0 0-.997.5 25.565 25.565 0 0 0-1.507 8.668c0 9.889 5.6 17.052 13.8 21.286.23.119.505.119.735 0a30.423 30.423 0 0 0 4.816-3.073c-2.83-1.634-5.302-3.642-7.284-6.014z" fill="#FAC600"/>
            <g transform="translate(51.719 5.469)">
                <circle fill="#97D729" cx="9.614" cy="9.664" r="8.351"/>
                <path d="M7.18 9.664c0-3.57 2.241-6.614 5.392-7.809a8.35 8.35 0 1 0 0 15.619 8.352 8.352 0 0 1-5.392-7.81z" fill="#8BC727"/>
                <path d="M9.613 19.187c-5.25 0-9.522-4.272-9.522-9.523 0-5.25 4.272-9.522 9.522-9.522 5.251 0 9.523 4.272 9.523 9.522 0 5.251-4.272 9.523-9.523 9.523zm0-16.701c-3.958 0-7.178 3.22-7.178 7.179 0 3.958 3.22 7.178 7.178 7.178 3.959 0 7.18-3.22 7.18-7.178 0-3.959-3.221-7.18-7.18-7.18z" fill="#E8B800"/>
                <path d="M9.049 13.336c-.31 0-.609-.123-.829-.343L4.768 9.54a1.172 1.172 0 1 1 1.657-1.657l2.624 2.624 3.753-3.753a1.172 1.172 0 0 1 1.657 1.657l-4.582 4.582c-.22.22-.517.343-.828.343z" fill="#FFF"/>
            </g>
        </g>
    </g>
</svg>
