<svg width="24" height="19" xmlns="http://www.w3.org/2000/svg">
    <g fill-rule="nonzero" fill="none">
        <path d="M23.775 3.991s-.225-1.756-.938-2.554c-.9-.998-1.95-1.038-2.399-1.078C17.025.12 12 .12 12 .12s-5.025 0-8.4.24C3.112.4 2.1.44 1.2 1.437.488 2.195.262 3.99.262 3.99S0 6.066 0 8.142v1.956c0 2.074.225 4.15.225 4.15s.225 1.756.938 2.555c.9.997 2.1.997 2.662 1.077 1.913.2 8.175.24 8.175.24s5.025 0 8.4-.28c.488-.04 1.5-.08 2.4-1.077.712-.759.938-2.555.938-2.555s.262-2.074.262-4.15V8.101c0-2.036-.225-4.11-.225-4.11z" fill="#888"/>
        <path fill="#F0F8FF" d="M9.375 5.705v7.196l6.5-3.598z"/>
    </g>
</svg>
